<svg width="32" height="32" viewBox="0 0 32 32" fill="none" xmlns="http://www.w3.org/2000/svg">
<path d="M14.0721 8.32002L9.56148 3.11335C9.04148 2.51335 8.08815 2.51602 7.48415 3.12135L3.77481 6.83735C2.67081 7.94269 2.35481 9.58402 2.99348 10.9C6.80897 18.8 13.1802 25.1801 21.0748 29.0067C22.3895 29.6454 24.0295 29.3294 25.1335 28.224L28.8775 24.4734C29.4841 23.8667 29.4855 22.908 28.8801 22.388L23.6535 17.9014C23.1068 17.432 22.2575 17.4934 21.7095 18.0427L19.8908 19.864C19.7977 19.9616 19.6751 20.0259 19.5419 20.0471C19.4088 20.0683 19.2723 20.0452 19.1535 19.9814C16.1807 18.2695 13.7148 15.8003 12.0068 12.8254C11.9428 12.7064 11.9197 12.5697 11.9409 12.4362C11.9621 12.3028 12.0265 12.18 12.1241 12.0867L13.9375 10.272C14.4868 9.72002 14.5468 8.86669 14.0721 8.31869V8.32002Z" stroke="black" stroke-width="2" stroke-linecap="round" stroke-linejoin="round"/>
</svg>
