<svg width="24" height="24" viewBox="0 0 24 24" fill="none" xmlns="http://www.w3.org/2000/svg">
<g clip-path="url(#clip0)">
<path d="M16.7625 16.1672L18.0958 14.6672C18.3042 14.4328 18.6667 14.5969 18.6667 14.9344V21.75C18.6667 22.9922 17.7708 24 16.6667 24H2C0.895833 24 0 22.9922 0 21.75V5.24998C0 4.00779 0.895833 2.99998 2 2.99998H13.3958C13.6917 2.99998 13.8417 3.4031 13.6333 3.64216L12.3 5.14216C12.2375 5.21248 12.1542 5.24998 12.0625 5.24998H2V21.75H16.6667V16.4297C16.6667 16.3312 16.7 16.2375 16.7625 16.1672ZM23.2875 6.70779L12.3458 19.0172L8.57917 19.4859C7.4875 19.6219 6.55833 18.5859 6.67917 17.3484L7.09583 13.1109L18.0375 0.801538C18.9917 -0.271899 20.5333 -0.271899 21.4833 0.801538L23.2833 2.82654C24.2375 3.89998 24.2375 5.63904 23.2875 6.70779ZM19.1708 8.15623L16.75 5.43279L9.00833 14.1469L8.70417 17.2078L11.425 16.8656L19.1708 8.15623ZM21.8708 4.42029L20.0708 2.39529C19.9 2.2031 19.6208 2.2031 19.4542 2.39529L18.1667 3.84373L20.5875 6.56716L21.875 5.11873C22.0417 4.92185 22.0417 4.61248 21.8708 4.42029Z" fill="white"/>
</g>
<defs>
<clipPath id="clip0">
<rect width="24" height="24" fill="white"/>
</clipPath>
</defs>
</svg>
