<svg width="5" height="21" viewBox="0 0 5 21" fill="none" xmlns="http://www.w3.org/2000/svg">
<path d="M2.5 4.5C3.60457 4.5 4.5 3.60457 4.5 2.5C4.5 1.39543 3.60457 0.5 2.5 0.5C1.39543 0.5 0.5 1.39543 0.5 2.5C0.5 3.60457 1.39543 4.5 2.5 4.5Z" fill="white"/>
<path d="M2.5 12.5C3.60457 12.5 4.5 11.6046 4.5 10.5C4.5 9.39543 3.60457 8.5 2.5 8.5C1.39543 8.5 0.5 9.39543 0.5 10.5C0.5 11.6046 1.39543 12.5 2.5 12.5Z" fill="white"/>
<path d="M2.5 20.5C3.60457 20.5 4.5 19.6046 4.5 18.5C4.5 17.3954 3.60457 16.5 2.5 16.5C1.39543 16.5 0.5 17.3954 0.5 18.5C0.5 19.6046 1.39543 20.5 2.5 20.5Z" fill="white"/>
</svg>
