<svg width="40" height="52" viewBox="0 0 40 52" fill="none" xmlns="http://www.w3.org/2000/svg">
<path d="M9.125 29.625H23.625V33.25H9.125V29.625Z" fill="#0635C9"/>
<path d="M9.125 20.5625H30.875V24.1875H9.125V20.5625Z" fill="#0635C9"/>
<path d="M9.125 38.6875H18.1875V42.3125H9.125V38.6875Z" fill="#0635C9"/>
<path d="M36.3125 6.0625H30.875V4.25C30.875 3.28859 30.4931 2.36656 29.8133 1.68674C29.1334 1.00692 28.2114 0.625 27.25 0.625H12.75C11.7886 0.625 10.8666 1.00692 10.1867 1.68674C9.50692 2.36656 9.125 3.28859 9.125 4.25V6.0625H3.6875C2.72609 6.0625 1.80406 6.44442 1.12424 7.12424C0.444418 7.80406 0.0625 8.72609 0.0625 9.6875V47.75C0.0625 48.7114 0.444418 49.6334 1.12424 50.3133C1.80406 50.9931 2.72609 51.375 3.6875 51.375H36.3125C37.2739 51.375 38.1959 50.9931 38.8758 50.3133C39.5556 49.6334 39.9375 48.7114 39.9375 47.75V9.6875C39.9375 8.72609 39.5556 7.80406 38.8758 7.12424C38.1959 6.44442 37.2739 6.0625 36.3125 6.0625ZM12.75 4.25H27.25V11.5H12.75V4.25ZM36.3125 47.75H3.6875V9.6875H9.125V15.125H30.875V9.6875H36.3125V47.75Z" fill="#0635C9"/>
</svg>
