<svg width="418" height="418" viewBox="0 0 418 418" fill="none" xmlns="http://www.w3.org/2000/svg">
<path d="M188.206 75.1094L37.5956 317.002C27.4395 333.314 39.1712 354.443 58.3894 354.443H82.8816C63.6634 354.443 51.9317 333.314 62.0878 317.002L212.698 75.1094C214.816 71.6806 217.754 68.8322 221.246 66.8205C215.739 63.6504 209.215 62.7428 203.051 64.2892C196.888 65.8355 191.565 69.7149 188.206 75.1094Z" fill="#D4E1F4"/>
<path d="M254.742 59.5715C249.903 51.8003 243.164 45.39 235.161 40.9454C227.158 36.5008 218.155 34.1685 209 34.1685C199.846 34.1685 190.842 36.5008 182.839 40.9454C174.836 45.39 168.098 51.8003 163.259 59.5715L12.6461 301.468C7.56624 309.626 4.76093 318.995 4.52095 328.603C4.28098 338.21 6.61508 347.707 11.2813 356.109C15.9475 364.511 22.776 371.512 31.059 376.387C39.3419 381.261 48.7778 383.831 58.3885 383.831H359.612C369.223 383.831 378.659 381.261 386.941 376.386C395.224 371.512 402.053 364.511 406.719 356.109C411.385 347.707 413.719 338.21 413.479 328.602C413.239 318.995 410.434 309.626 405.354 301.468L254.742 59.5715ZM398.153 351.355C394.334 358.228 388.747 363.955 381.97 367.943C375.194 371.93 367.475 374.034 359.612 374.036H58.3885C50.5253 374.037 42.8051 371.934 36.0283 367.945C29.2515 363.957 23.6647 358.229 19.847 351.355C16.0293 344.481 14.1196 336.711 14.3159 328.85C14.5123 320.989 16.8075 313.324 20.9636 306.649L171.576 64.7499C175.535 58.3917 181.048 53.147 187.596 49.5106C194.144 45.8741 201.51 43.9659 209 43.9659C216.49 43.9659 223.857 45.8741 230.405 49.5106C236.952 53.147 242.466 58.3917 246.425 64.7499L397.036 306.646C401.19 313.322 403.485 320.987 403.681 328.847C403.877 336.708 401.969 344.478 398.153 351.353V351.355Z" fill="#36E8E8"/>
<path d="M150.503 184.791C151.336 184.792 152.156 184.58 152.884 184.176C153.613 183.772 154.226 183.189 154.666 182.481L161.279 171.854C161.966 170.751 162.186 169.421 161.892 168.155C161.598 166.89 160.813 165.793 159.71 165.106C158.607 164.419 157.276 164.199 156.011 164.493C154.745 164.788 153.648 165.573 152.962 166.676L146.349 177.303C145.887 178.044 145.632 178.896 145.61 179.769C145.588 180.642 145.8 181.505 146.223 182.269C146.647 183.032 147.267 183.669 148.02 184.112C148.772 184.556 149.629 184.79 150.503 184.791Z" fill="#36E8E8"/>
<path d="M142.789 192.288C141.687 191.602 140.356 191.381 139.091 191.675C137.826 191.97 136.729 192.754 136.043 193.857L93.5079 262.177C92.8212 263.28 92.6007 264.611 92.8951 265.876C93.1894 267.142 93.9744 268.239 95.0774 268.925C96.1804 269.612 97.511 269.832 98.7765 269.538C100.042 269.244 101.139 268.459 101.825 267.356L144.36 199.036C144.7 198.489 144.929 197.882 145.034 197.247C145.139 196.612 145.118 195.963 144.972 195.336C144.827 194.71 144.559 194.118 144.184 193.595C143.81 193.072 143.336 192.628 142.789 192.288Z" fill="#36E8E8"/>
<path d="M233.95 72.5163C231.311 68.2773 227.635 64.7806 223.27 62.3561C218.905 59.9317 213.993 58.6594 209 58.6594C204.007 58.6594 199.095 59.9317 194.73 62.3561C190.365 64.7806 186.689 68.2773 184.05 72.5163L33.4375 314.413C30.6668 318.863 29.1366 323.974 29.0057 329.214C28.8749 334.455 30.148 339.635 32.6932 344.218C35.2384 348.801 38.9629 352.619 43.4809 355.278C47.9988 357.937 53.1456 359.339 58.3877 359.339H99.6399C100.939 359.339 102.185 358.823 103.104 357.904C104.022 356.985 104.538 355.739 104.538 354.44C104.538 353.141 104.022 351.895 103.104 350.976C102.185 350.058 100.939 349.542 99.6399 349.542H58.7927C55.3377 349.575 51.9332 348.711 48.9119 347.035C45.8905 345.359 43.3557 342.928 41.5551 339.979C39.6895 336.898 38.7199 333.358 38.7553 329.757C38.7906 326.156 39.8294 322.635 41.7551 319.592L192.367 77.6948C194.127 74.8691 196.577 72.5383 199.487 70.9223C202.397 69.3062 205.671 68.4582 209 68.4582C212.329 68.4582 215.603 69.3062 218.513 70.9223C221.423 72.5383 223.873 74.8691 225.633 77.6948L376.245 319.592C378.171 322.635 379.209 326.156 379.245 329.757C379.28 333.358 378.31 336.898 376.445 339.979C374.644 342.928 372.109 345.359 369.088 347.035C366.067 348.711 362.662 349.575 359.207 349.542H132.296C130.997 349.542 129.751 350.058 128.832 350.976C127.914 351.895 127.398 353.141 127.398 354.44C127.398 355.739 127.914 356.985 128.832 357.904C129.751 358.823 130.997 359.339 132.296 359.339H359.612C364.854 359.339 370.001 357.937 374.519 355.278C379.037 352.619 382.762 348.801 385.307 344.218C387.852 339.635 389.125 334.455 388.994 329.214C388.863 323.974 387.333 318.863 384.562 314.413L233.95 72.5163Z" fill="#36E8E8"/>
<path d="M204.129 278.297C204.258 279.499 204.826 280.612 205.726 281.42C206.625 282.228 207.791 282.675 209 282.675C210.209 282.675 211.375 282.228 212.274 281.42C213.174 280.612 213.742 279.499 213.871 278.297L225.039 174.072C225.281 171.822 225.046 169.545 224.35 167.391C223.655 165.237 222.513 163.253 221 161.569C219.487 159.885 217.637 158.539 215.57 157.617C213.502 156.695 211.264 156.218 209 156.218C206.736 156.218 204.498 156.695 202.43 157.617C200.363 158.539 198.513 159.885 197 161.569C195.487 163.253 194.346 165.237 193.65 167.391C192.954 169.545 192.719 171.822 192.961 174.072L204.129 278.297ZM204.293 168.12C205.188 167.124 206.376 166.437 207.686 166.158C208.996 165.88 210.36 166.023 211.583 166.568C212.807 167.114 213.826 168.033 214.494 169.193C215.162 170.354 215.445 171.697 215.303 173.028L209 231.804L202.701 173.028C202.602 172.144 202.692 171.249 202.965 170.403C203.239 169.556 203.69 168.778 204.289 168.12H204.293Z" fill="#1AE5BE"/>
<path d="M222.917 305.267C222.917 302.65 222.141 300.092 220.688 297.915C219.234 295.739 217.167 294.043 214.749 293.041C212.331 292.039 209.67 291.777 207.103 292.288C204.536 292.798 202.178 294.058 200.327 295.909C198.476 297.76 197.216 300.118 196.705 302.685C196.195 305.252 196.457 307.912 197.458 310.33C198.46 312.749 200.156 314.815 202.332 316.269C204.508 317.724 207.067 318.5 209.684 318.5C213.192 318.496 216.556 317.101 219.037 314.62C221.518 312.139 222.913 308.776 222.917 305.267ZM209.684 308.703C209.005 308.703 208.341 308.501 207.776 308.123C207.211 307.746 206.771 307.209 206.511 306.582C206.251 305.954 206.183 305.263 206.316 304.597C206.448 303.93 206.776 303.318 207.256 302.838C207.737 302.358 208.349 302.03 209.015 301.898C209.681 301.765 210.372 301.834 211 302.094C211.628 302.354 212.164 302.794 212.542 303.359C212.919 303.924 213.12 304.588 213.12 305.267C213.119 306.178 212.757 307.052 212.113 307.696C211.469 308.34 210.595 308.702 209.684 308.703Z" fill="#1AE5BE"/>
</svg>
