<svg width="27" height="24" viewBox="0 0 27 24" fill="none" xmlns="http://www.w3.org/2000/svg">
<path d="M25.0499 11.9342C25.0499 11.8827 25.0499 11.8241 25.0473 11.7561C25.0447 11.5663 25.0395 11.353 25.0343 11.1256C25.0134 10.4717 24.9769 9.82017 24.9195 9.2061C24.8412 8.36001 24.7264 7.65454 24.5698 7.12485C24.4046 6.57208 24.0807 6.06794 23.6306 5.66281C23.1805 5.25769 22.6199 4.96578 22.0048 4.81626C21.2663 4.63813 19.8207 4.52798 17.7854 4.46001C16.8173 4.4272 15.7814 4.4061 14.7455 4.39438C14.3828 4.3897 14.0462 4.38735 13.7435 4.38501H12.9763C12.6737 4.38735 12.337 4.3897 11.9743 4.39438C10.9384 4.4061 9.9025 4.4272 8.93442 4.46001C6.89911 4.53032 5.45091 4.64048 4.71506 4.81626C4.09977 4.96541 3.53894 5.2572 3.08875 5.66238C2.63857 6.06756 2.31486 6.5719 2.15005 7.12485C1.99088 7.65454 1.87867 8.36001 1.80039 9.2061C1.74298 9.82017 1.70645 10.4717 1.68558 11.1256C1.67775 11.353 1.67514 11.5663 1.67253 11.7561C1.67253 11.8241 1.66992 11.8827 1.66992 11.9342V12.0655C1.66992 12.117 1.66992 12.1756 1.67253 12.2436C1.67514 12.4334 1.68036 12.6467 1.68558 12.8741C1.70645 13.528 1.74298 14.1795 1.80039 14.7936C1.87867 15.6397 1.99348 16.3452 2.15005 16.8749C2.48405 17.9975 3.46517 18.8834 4.71506 19.1834C5.45091 19.3616 6.89911 19.4717 8.93442 19.5397C9.9025 19.5725 10.9384 19.5936 11.9743 19.6053C12.337 19.61 12.6737 19.6124 12.9763 19.6147H13.7435C14.0462 19.6124 14.3828 19.61 14.7455 19.6053C15.7814 19.5936 16.8173 19.5725 17.7854 19.5397C19.8207 19.4694 21.2689 19.3592 22.0048 19.1834C23.2547 18.8834 24.2358 17.9999 24.5698 16.8749C24.729 16.3452 24.8412 15.6397 24.9195 14.7936C24.9769 14.1795 25.0134 13.528 25.0343 12.8741C25.0421 12.6467 25.0447 12.4334 25.0473 12.2436C25.0473 12.1756 25.0499 12.117 25.0499 12.0655V11.9342V11.9342ZM23.1712 12.0561C23.1712 12.1053 23.1712 12.1592 23.1686 12.2225C23.166 12.4053 23.1607 12.6069 23.1555 12.8249C23.1373 13.4483 23.1007 14.0717 23.0459 14.6506C22.9755 15.4053 22.8763 16.0241 22.7537 16.4389C22.5919 16.9803 22.117 17.4092 21.5168 17.5522C20.9689 17.6834 19.5885 17.7889 17.7124 17.8522C16.7625 17.885 15.7397 17.9061 14.7194 17.9178C14.3619 17.9225 14.0305 17.9249 13.7331 17.9249H12.9868L12.0004 17.9178C10.9802 17.9061 9.95991 17.885 9.00748 17.8522C7.13134 17.7866 5.74837 17.6834 5.20302 17.5522C4.60286 17.4069 4.12795 16.9803 3.96617 16.4389C3.84353 16.0241 3.74438 15.4053 3.67392 14.6506C3.61913 14.0717 3.5852 13.4483 3.56433 12.8249C3.5565 12.6069 3.55389 12.403 3.55128 12.2225C3.55128 12.1592 3.54867 12.103 3.54867 12.0561V11.9436C3.54867 11.8944 3.54867 11.8405 3.55128 11.7772C3.55389 11.5944 3.55911 11.3928 3.56433 11.1749C3.58259 10.5514 3.61913 9.92798 3.67392 9.34907C3.74438 8.59438 3.84353 7.97563 3.96617 7.56079C4.12795 7.01938 4.60286 6.59048 5.20302 6.44751C5.75098 6.31626 7.13134 6.21079 9.00748 6.14751C9.9573 6.1147 10.9802 6.0936 12.0004 6.08188C12.3579 6.0772 12.6893 6.07485 12.9868 6.07485H13.7331L14.7194 6.08188C15.7397 6.0936 16.7599 6.1147 17.7124 6.14751C19.5885 6.21313 20.9715 6.31626 21.5168 6.44751C22.117 6.59282 22.5919 7.01938 22.7537 7.56079C22.8763 7.97563 22.9755 8.59438 23.0459 9.34907C23.1007 9.92798 23.1346 10.5514 23.1555 11.1749C23.1633 11.3928 23.166 11.5967 23.1686 11.7772C23.1686 11.8405 23.1712 11.8967 23.1712 11.9436V12.0561ZM11.0376 15.1405L17.0913 11.9764L11.0376 8.85923V15.1405Z" fill="white"/>
</svg>
