<svg width="27" height="24" viewBox="0 0 27 24" fill="none" xmlns="http://www.w3.org/2000/svg">
<path d="M22.1195 2.625H4.60019C3.67386 2.625 2.92236 3.3 2.92236 4.13203V19.868C2.92236 20.7 3.67386 21.375 4.60019 21.375H22.1195C23.0459 21.375 23.7974 20.7 23.7974 19.868V4.13203C23.7974 3.3 23.0459 2.625 22.1195 2.625V2.625ZM22.1195 19.875C10.4348 19.8727 4.59236 19.8703 4.59236 19.868C4.59497 9.37266 4.59758 4.125 4.60019 4.125C16.285 4.12734 22.1274 4.12969 22.1274 4.13203C22.1248 14.6273 22.1221 19.875 22.1195 19.875ZM6.01708 9.65391H9.11441V18.6023H6.01708V9.65391ZM7.56705 8.43047C8.556 8.43047 9.3623 7.70859 9.3623 6.81797C9.3623 6.60621 9.31587 6.39653 9.22565 6.20089C9.13543 6.00525 9.00319 5.82749 8.83648 5.67776C8.66978 5.52802 8.47187 5.40925 8.25406 5.32821C8.03625 5.24718 7.80281 5.20547 7.56705 5.20547C7.33129 5.20547 7.09785 5.24718 6.88004 5.32821C6.66223 5.40925 6.46432 5.52802 6.29762 5.67776C6.13091 5.82749 5.99868 6.00525 5.90846 6.20089C5.81824 6.39653 5.7718 6.60621 5.7718 6.81797C5.76919 7.70859 6.57288 8.43047 7.56705 8.43047ZM14.1505 14.175C14.1505 13.0078 14.3984 11.8781 16.0084 11.8781C17.5949 11.8781 17.6184 13.2117 17.6184 14.25V18.6023H20.7131V13.6945C20.7131 11.2852 20.1338 9.43125 16.9999 9.43125C15.4943 9.43125 14.4845 10.1742 14.0696 10.8773H14.0279V9.65391H11.0558V18.6023H14.1505V14.175Z" fill="white"/>
</svg>
