<svg width="106" height="24" viewBox="0 0 106 24" fill="none" xmlns="http://www.w3.org/2000/svg">
<path fill-rule="evenodd" clip-rule="evenodd" d="M11.5729 7.51345C11.5729 4.75025 13.8129 2.51025 16.5761 2.51025C18.1985 2.51025 19.4929 3.27665 20.3601 4.39025C21.2773 4.20224 22.1567 3.86208 22.9617 3.38385C22.6499 4.35378 21.9974 5.17795 21.1249 5.70385L21.1281 5.70865C21.9564 5.60857 22.7652 5.38587 23.5281 5.04785L23.5265 5.05105C22.9873 5.85905 22.3105 6.57105 21.5297 7.15185C21.5713 7.43505 21.5937 7.71825 21.5937 7.99985C21.5937 13.8991 17.0993 20.7599 8.83366 20.7599C6.39638 20.762 4.01007 20.0621 1.96006 18.7439C1.86355 18.6819 1.78148 18.5999 1.71942 18.5035C1.65736 18.4071 1.61676 18.2984 1.60037 18.1849C1.58399 18.0714 1.59219 17.9557 1.62444 17.8457C1.65668 17.7356 1.71221 17.6338 1.78726 17.5471C1.85863 17.4284 1.96269 17.3328 2.08699 17.2718C2.21128 17.2108 2.35054 17.1869 2.48806 17.2031C3.95366 17.3759 5.41606 17.1967 6.70726 16.6335C6.07039 16.3521 5.50024 15.9392 5.03422 15.4219C4.5682 14.9046 4.21686 14.2945 4.00326 13.6319C3.96376 13.5086 3.95822 13.377 3.98723 13.2508C4.01623 13.1247 4.0787 13.0087 4.16806 12.9151C3.64223 12.4536 3.22105 11.8851 2.93269 11.2477C2.64434 10.6103 2.49547 9.91865 2.49606 9.21905V9.16465C2.49602 8.99727 2.5543 8.8351 2.66088 8.70604C2.76747 8.57697 2.91569 8.48907 3.08006 8.45745C2.7173 7.75741 2.52851 6.9803 2.52966 6.19185C2.52966 5.44305 2.53446 4.49905 3.06086 3.64785C3.1171 3.55768 3.19261 3.48107 3.28196 3.42353C3.37131 3.36599 3.47229 3.32895 3.57766 3.31505C3.73044 3.26687 3.89417 3.26566 4.04764 3.31159C4.20111 3.35752 4.33726 3.44847 4.43846 3.57265C6.22201 5.76672 8.77301 7.20065 11.5745 7.58385V7.51345H11.5729ZM8.83366 19.1599C7.60949 19.1608 6.3936 18.9591 5.23526 18.5631C6.62852 18.3332 7.94268 17.7603 9.05926 16.8959C9.17628 16.8041 9.262 16.6783 9.30465 16.5358C9.34729 16.3933 9.34477 16.2411 9.29742 16.1001C9.25008 15.9591 9.16023 15.8363 9.04023 15.7484C8.92023 15.6606 8.77596 15.612 8.62726 15.6095C8.0916 15.5998 7.56541 15.4666 7.08971 15.2201C6.61402 14.9737 6.20168 14.6207 5.88486 14.1887C6.18886 14.1647 6.48646 14.1119 6.77446 14.0351C6.93145 13.9931 7.06963 13.8992 7.16652 13.7688C7.26342 13.6383 7.31333 13.4789 7.30814 13.3165C7.30294 13.1541 7.24296 12.9982 7.13793 12.8742C7.0329 12.7501 6.88901 12.6653 6.72966 12.6335C6.12095 12.5101 5.55621 12.2265 5.09379 11.8119C4.63136 11.3973 4.28803 10.8667 4.09926 10.2751C4.41926 10.3519 4.75366 10.3983 5.09606 10.4095C5.25253 10.4147 5.40645 10.3688 5.53451 10.2788C5.66256 10.1887 5.75776 10.0593 5.8057 9.9103C5.85363 9.76125 5.85168 9.60065 5.80013 9.45282C5.74859 9.30499 5.65026 9.17799 5.52006 9.09105C5.04262 8.77298 4.65114 8.34191 4.38038 7.83614C4.10963 7.33036 3.968 6.76554 3.96806 6.19185C3.96806 5.92305 3.97286 5.68465 3.98886 5.46705C6.22769 7.75183 9.24519 9.10919 12.4401 9.26865C12.5634 9.27493 12.6866 9.25255 12.7999 9.20326C12.9131 9.15398 13.0135 9.07914 13.093 8.98459C13.1725 8.89005 13.229 8.77838 13.2581 8.65833C13.2873 8.53829 13.2882 8.41312 13.2609 8.29265C13.1433 7.79306 13.1404 7.27335 13.2521 6.77243C13.3639 6.27152 13.5875 5.80236 13.9062 5.40008C14.2249 4.99781 14.6305 4.67282 15.0925 4.44946C15.5546 4.22609 16.0612 4.11013 16.5745 4.11025C18.5489 4.11025 19.9921 5.93905 19.9921 8.00145C19.9921 13.2111 16.0305 19.1599 8.83206 19.1599H8.83366Z" fill="white"/>
<path d="M52.999 7.37695C51.7726 7.37695 50.5965 7.86412 49.7293 8.73129C48.8622 9.59846 48.375 10.7746 48.375 12.001C48.375 13.2273 48.8622 14.4034 49.7293 15.2706C50.5965 16.1378 51.7726 16.625 52.999 16.625C54.2254 16.625 55.4015 16.1378 56.2687 15.2706C57.1358 14.4034 57.623 13.2273 57.623 12.001C57.623 10.7746 57.1358 9.59846 56.2687 8.73129C55.4015 7.86412 54.2254 7.37695 52.999 7.37695ZM52.999 15.004C52.2023 15.004 51.4382 14.6875 50.8749 14.1241C50.3115 13.5607 49.995 12.7967 49.995 12C49.995 11.2032 50.3115 10.4392 50.8749 9.8758C51.4382 9.31245 52.2023 8.99595 52.999 8.99595C53.7957 8.99595 54.5598 9.31245 55.1231 9.8758C55.6865 10.4392 56.003 11.2032 56.003 12C56.003 12.7967 55.6865 13.5607 55.1231 14.1241C54.5598 14.6875 53.7957 15.004 52.999 15.004Z" fill="white"/>
<path d="M57.806 8.28491C58.4014 8.28491 58.884 7.80227 58.884 7.20691C58.884 6.61154 58.4014 6.12891 57.806 6.12891C57.2107 6.12891 56.728 6.61154 56.728 7.20691C56.728 7.80227 57.2107 8.28491 57.806 8.28491Z" fill="white"/>
<path d="M61.533 6.11088C61.3015 5.51306 60.9477 4.97017 60.4943 4.51694C60.0409 4.06372 59.4979 3.71015 58.9 3.47888C58.2003 3.21624 57.4611 3.07422 56.714 3.05888C55.751 3.01688 55.446 3.00488 53.004 3.00488C50.562 3.00488 50.249 3.00488 49.294 3.05888C48.5473 3.07344 47.8087 3.21548 47.11 3.47888C46.5119 3.70988 45.9687 4.06335 45.5153 4.51661C45.0619 4.96987 44.7082 5.51291 44.477 6.11088C44.2143 6.8105 44.0726 7.54972 44.058 8.29688C44.015 9.25888 44.002 9.56388 44.002 12.0069C44.002 14.4489 44.002 14.7599 44.058 15.7169C44.073 16.4649 44.214 17.2029 44.477 17.9039C44.7088 18.5016 45.0628 19.0445 45.5164 19.4977C45.9699 19.9509 46.513 20.3045 47.111 20.5359C47.8084 20.8091 48.5473 20.9613 49.296 20.9859C50.259 21.0279 50.564 21.0409 53.006 21.0409C55.448 21.0409 55.761 21.0409 56.716 20.9859C57.4631 20.9707 58.2022 20.829 58.902 20.5669C59.4997 20.3351 60.0426 19.9812 60.4959 19.5279C60.9493 19.0745 61.3031 18.5316 61.535 17.9339C61.798 17.2339 61.939 16.4959 61.954 15.7479C61.997 14.7859 62.01 14.4809 62.01 12.0379C62.01 9.59488 62.01 9.28488 61.954 8.32788C61.9423 7.57016 61.7999 6.82013 61.533 6.11088ZM60.315 15.6429C60.3085 16.2192 60.2033 16.7901 60.004 17.3309C59.8538 17.7198 59.6239 18.0729 59.329 18.3676C59.0342 18.6622 58.6809 18.8919 58.292 19.0419C57.7572 19.2403 57.1923 19.3455 56.622 19.3529C55.672 19.3969 55.404 19.4079 52.968 19.4079C50.53 19.4079 50.281 19.4079 49.313 19.3529C48.7429 19.3459 48.1783 19.2407 47.644 19.0419C47.2536 18.8929 46.899 18.6636 46.6028 18.3688C46.3067 18.0741 46.0758 17.7205 45.925 17.3309C45.7284 16.7959 45.6233 16.2317 45.614 15.6619C45.571 14.7119 45.561 14.4439 45.561 12.0079C45.561 9.57088 45.561 9.32188 45.614 8.35288C45.6204 7.77691 45.7256 7.2063 45.925 6.66588C46.23 5.87688 46.855 5.25588 47.644 4.95388C48.1785 4.75602 48.743 4.65085 49.313 4.64288C50.264 4.59988 50.531 4.58788 52.968 4.58788C55.405 4.58788 55.655 4.58788 56.622 4.64288C57.1924 4.64974 57.7573 4.75495 58.292 4.95388C58.6809 5.10416 59.0341 5.33408 59.3289 5.62891C59.6238 5.92374 59.8537 6.27695 60.004 6.66588C60.2005 7.20083 60.3056 7.76504 60.315 8.33488C60.358 9.28588 60.369 9.55288 60.369 11.9899C60.369 14.4259 60.369 14.6879 60.326 15.6439H60.315V15.6429Z" fill="white"/>
<g clip-path="url(#clip0)">
<path d="M106.001 12.074C106.001 5.40502 100.628 -0.000976562 94.001 -0.000976562C87.371 0.000523438 81.998 5.40502 81.998 12.0755C81.998 18.101 86.387 23.096 92.123 24.002V15.5645H89.078V12.0755H92.126V9.41302C92.126 6.38752 93.9185 4.71652 96.659 4.71652C97.973 4.71652 99.3455 4.95202 99.3455 4.95202V7.92202H97.832C96.3425 7.92202 95.8775 8.85352 95.8775 9.80902V12.074H99.2045L98.6735 15.563H95.876V24.0005C101.612 23.0945 106.001 18.0995 106.001 12.074Z" fill="white"/>
</g>
<defs>
<clipPath id="clip0">
<rect width="24" height="24" fill="white" transform="translate(82)"/>
</clipPath>
</defs>
</svg>
