<svg width="24" height="24" viewBox="0 0 24 24" fill="none" xmlns="http://www.w3.org/2000/svg">
<path fill-rule="evenodd" clip-rule="evenodd" d="M11.5729 7.51345C11.5729 4.75025 13.8129 2.51025 16.5761 2.51025C18.1985 2.51025 19.4929 3.27665 20.3601 4.39025C21.2773 4.20224 22.1567 3.86208 22.9617 3.38385C22.6499 4.35378 21.9974 5.17795 21.1249 5.70385L21.1281 5.70865C21.9564 5.60857 22.7652 5.38587 23.5281 5.04785L23.5265 5.05105C22.9873 5.85905 22.3105 6.57105 21.5297 7.15185C21.5713 7.43505 21.5937 7.71825 21.5937 7.99985C21.5937 13.8991 17.0993 20.7599 8.83366 20.7599C6.39638 20.762 4.01007 20.0621 1.96006 18.7439C1.86355 18.6819 1.78148 18.5999 1.71942 18.5035C1.65736 18.4071 1.61676 18.2984 1.60037 18.1849C1.58399 18.0714 1.59219 17.9557 1.62444 17.8457C1.65668 17.7356 1.71221 17.6338 1.78726 17.5471C1.85863 17.4284 1.96269 17.3328 2.08699 17.2718C2.21128 17.2108 2.35054 17.1869 2.48806 17.2031C3.95366 17.3759 5.41606 17.1967 6.70726 16.6335C6.07039 16.3521 5.50024 15.9392 5.03422 15.4219C4.5682 14.9046 4.21686 14.2945 4.00326 13.6319C3.96376 13.5086 3.95822 13.377 3.98723 13.2508C4.01623 13.1247 4.0787 13.0087 4.16806 12.9151C3.64223 12.4536 3.22105 11.8851 2.93269 11.2477C2.64434 10.6103 2.49547 9.91865 2.49606 9.21905V9.16465C2.49602 8.99727 2.5543 8.8351 2.66088 8.70604C2.76747 8.57697 2.91569 8.48907 3.08006 8.45745C2.7173 7.75741 2.52851 6.9803 2.52966 6.19185C2.52966 5.44305 2.53446 4.49905 3.06086 3.64785C3.1171 3.55768 3.19261 3.48107 3.28196 3.42353C3.37131 3.36599 3.47229 3.32895 3.57766 3.31505C3.73044 3.26687 3.89417 3.26566 4.04764 3.31159C4.20111 3.35752 4.33726 3.44847 4.43846 3.57265C6.22201 5.76672 8.77301 7.20065 11.5745 7.58385V7.51345H11.5729ZM8.83366 19.1599C7.60949 19.1608 6.3936 18.9591 5.23526 18.5631C6.62852 18.3332 7.94268 17.7603 9.05926 16.8959C9.17628 16.8041 9.262 16.6783 9.30465 16.5358C9.34729 16.3933 9.34477 16.2411 9.29742 16.1001C9.25008 15.9591 9.16023 15.8363 9.04023 15.7484C8.92023 15.6606 8.77596 15.612 8.62726 15.6095C8.0916 15.5998 7.56541 15.4666 7.08971 15.2201C6.61402 14.9737 6.20168 14.6207 5.88486 14.1887C6.18886 14.1647 6.48646 14.1119 6.77446 14.0351C6.93145 13.9931 7.06963 13.8992 7.16652 13.7688C7.26342 13.6383 7.31333 13.4789 7.30814 13.3165C7.30294 13.1541 7.24296 12.9982 7.13793 12.8742C7.0329 12.7501 6.88901 12.6653 6.72966 12.6335C6.12095 12.5101 5.55621 12.2265 5.09379 11.8119C4.63136 11.3973 4.28803 10.8667 4.09926 10.2751C4.41926 10.3519 4.75366 10.3983 5.09606 10.4095C5.25253 10.4147 5.40645 10.3688 5.53451 10.2788C5.66256 10.1887 5.75776 10.0593 5.8057 9.9103C5.85363 9.76125 5.85168 9.60065 5.80013 9.45282C5.74859 9.30499 5.65026 9.17799 5.52006 9.09105C5.04262 8.77298 4.65114 8.34191 4.38038 7.83614C4.10963 7.33036 3.968 6.76554 3.96806 6.19185C3.96806 5.92305 3.97286 5.68465 3.98886 5.46705C6.22769 7.75183 9.24519 9.10919 12.4401 9.26865C12.5634 9.27493 12.6866 9.25255 12.7999 9.20326C12.9131 9.15398 13.0135 9.07914 13.093 8.98459C13.1725 8.89005 13.229 8.77838 13.2581 8.65833C13.2873 8.53829 13.2882 8.41312 13.2609 8.29265C13.1433 7.79306 13.1404 7.27335 13.2521 6.77243C13.3639 6.27152 13.5875 5.80236 13.9062 5.40008C14.2249 4.99781 14.6305 4.67282 15.0925 4.44946C15.5546 4.22609 16.0612 4.11013 16.5745 4.11025C18.5489 4.11025 19.9921 5.93905 19.9921 8.00145C19.9921 13.2111 16.0305 19.1599 8.83206 19.1599H8.83366Z" fill="white"/>
</svg>
