<svg id="Layer_1" enable-background="new 0 0 512 512" height="512" viewBox="0 0 512 512" width="512" xmlns="http://www.w3.org/2000/svg"><path d="m59.7 171-49 84.9 49 84.1h30l-49-84.1 49-84.9z" fill="#d4e1f4"/><g fill="#0635c9"><path d="m274.7 392h-4.9c-3.3 0-6 2.7-6 6s2.7 6 6 6h4.9c3.3 0 6-2.7 6-6s-2.7-6-6-6z"/><path d="m421.3 308h-4.9c-3.3 0-6 2.7-6 6s2.7 6 6 6h4.9c3.3 0 6-2.7 6-6s-2.7-6-6-6z"/><path d="m127.4 308h-4.9c-3.3 0-6 2.7-6 6s2.7 6 6 6h4.9c3.3 0 6-2.7 6-6s-2.7-6-6-6z"/></g><path d="m274.7 223h-4.9c-3.3 0-6 2.7-6 6s2.7 6 6 6h4.9c3.3 0 6-2.7 6-6s-2.7-6-6-6z" fill="#1ae5be"/><path d="m176.7 85.2-2.3 4.1c-1.6 2.9-.5 6.6 2.4 8.2s6.6.5 8.2-2.4l2.3-4.1c1.6-2.9.5-6.6-2.4-8.2-3-1.6-6.6-.5-8.2 2.4z" fill="#1ae5be"/><path d="m155.4 148.6 18.6-33.8c1.6-2.9.5-6.6-2.4-8.2s-6.6-.5-8.2 2.4l-18.6 33.8c-1.6 2.9-.6 6.5 2.3 8.2s6.5.6 8.2-2.3c.1 0 .1 0 .1-.1z" fill="#1ae5be"/><path d="m505.9 252.8-49-84.8c-1.1-1.9-3.1-3-5.2-3h-97.8l3.5 12h90.9l45.6 78.8-45.7 78.2h-4.2v-18.5c.1-15.6-12.4-28.4-28-28.5-.1 0-.1 0-.2 0h-2.4c12.8-4.1 21.6-16 21.6-29.5v-20.1c2.7-.5 4.7-3 4.5-5.8 0-11.6-9.4-21-21-21-1.6 0-3.1-.2-4.6-.7-3.2-1.1-6.5-1.7-9.9-1.9-17.1 0-31 13.9-31 31v18.5c0 13.5 8.6 25.4 21.4 29.5h-2.4c-15.7 0-28 12.8-28 28.5v18.5h-6.7l-45.5-78.4-10.4 6.4 45.5 78.5-45.3 78.5h-3.6v-18.7c0-15.7-13.1-28.3-28.8-28.3h-2.4c12.8-4.3 21.3-16.3 21.2-29.8v-20.1c2.8-.5 4.8-3 4.7-5.8 0-11.6-9.3-21-20.9-21-1.5 0-3.1-.2-4.5-.7-3.2-1.1-6.6-1.7-10-1.9-17.2 0-31.1 13.9-31.2 31v18.5c.1 13.6 8.9 25.6 21.8 29.8h-2.4c-15.6-.1-28.3 12.5-28.4 28.1v.2 18.7h-6.6l-45.6-78.5 45.6-78.5-10.4-6.4-45.7 78.4h-4.4v-18.5c.2-15.5-12.2-28.3-27.8-28.5-.1 0-.2 0-.3 0h-2.4c12.8-4.1 21.5-16.1 21.5-29.5v-20.1c2.8-.5 4.7-3 4.5-5.8 0-11.6-9.4-21-21-21-1.6 0-3.1-.2-4.6-.7-3.2-1.1-6.5-1.7-9.9-1.9-17.1 0-31 13.9-31 31v18.5c0 13.5 8.7 25.4 21.6 29.5h-2.4c-15.6.1-28.2 12.7-28.1 28.3v.2 18.5h-6.8l-45.5-78.2 45.4-78.8h91.2l3.5-12h-98.2c-2.1 0-4.1 1.1-5.2 3l-49 84.8c-1.1 1.9-1.1 4.2 0 6l49 84.2c1.1 1.8 3 3 5.2 3h94.4l47.7 82c1.1 1.8 3.1 3 5.2 3h98c2.1 0 4.1-1.1 5.2-3l47.3-82h94.1c2.1 0 4.1-1.1 5.2-3l49-84.2c1.1-1.8 1.1-4.1.1-6zm-414.9-13.8c0-10.5 8.5-19 19-19 2.2.2 4.4.6 6.4 1.4 2.6.9 5.3 1.3 8.1 1.4 2.6 0 5.1 1.2 6.8 3.3h-21.8c-6-.2-11.1 4.6-11.3 10.6v.3c0 3.1-2.5 5.1-5.5 5.1h-1.7zm0 18.5v-3.5h1.7c9.4 0 17.1-7 17.5-16h18.8v19.5c0 10.5-8.5 19-19 19s-19-8.5-19-19zm47 76.5h-56v-18.5c-.2-9 7-16.3 15.9-16.5h.2 23.9c9.1 0 16 7.4 16 16.5zm100-10.2c.1-10.5 8.6-19 19.2-19 2.2.2 4.4.6 6.5 1.4 2.6.7 5.4 1.1 8.1 1 2.6-.1 5.1.9 6.8 2.9h-21.8c-6.2 0-11.3 5.1-11.3 11.4 0 3.1-2.5 5.6-5.5 5.6h-2zm0 18.4v-3.2h1.9c9.5.1 17.4-7.5 17.5-17h18.6v20.2c0 10.5-8.5 19-19 19s-19-8.5-19-19zm48 76.8h-57v-18.7c0-9 7.2-16.2 16.2-16.3h.2 23.8c9.1 0 16.8 7.2 16.8 16.3zm99-180c0-10.5 8.5-19 19-19 2.2.2 4.3.6 6.4 1.4 2.6.9 5.3 1.3 8.1 1.4 2.6 0 5.1 1.2 6.7 3.3h-21.8c-6-.2-11.1 4.6-11.3 10.6v.3c0 3.1-2.5 5.1-5.5 5.1h-1.6zm0 18.5v-3.5h1.5c9.4 0 17.1-7 17.5-16h19v19.5c0 10.5-8.5 19-19 19s-19-8.5-19-19zm47 58v18.5h-56v-18.5c0-9.1 6.9-16.5 16-16.5h23.8c9 0 16.2 7.3 16.2 16.3z" fill="#0635c9"/><path d="m310.2 83c-1.1-1.9-3.1-3-5.2-3h-98c-2.1 0-4.1 1.1-5.2 3l-49.1 85.2c-1.1 1.9-1.1 4.1 0 6l49.1 84.8c1.1 1.9 3.1 3 5.2 3h98c2.1 0 4.1-1.1 5.2-3l49-84.8c1.1-1.8 1.1-4.1 0-6zm-24.2 167h-57v-19.3c0-9.1 7.3-16.6 16.4-16.7h23.8c9.2.1 16.6 7.5 16.8 16.7zm-46.1-80c9.4 0 17.1-8 17.5-17h18.6v19.7c0 10.5-8.5 19-19 19s-19-8.5-19-19v-2.7zm-1.9-12v-3.8c.1-10.5 8.6-19 19.2-19 2.2.2 4.4.6 6.5 1.4 2.6.8 5.4 1.3 8.1 1.3 2.6 0 5.1 1.1 6.8 3.1h-21.8c-6.2 0-11.3 5.1-11.3 11.4 0 3.1-2.5 5.6-5.5 5.6zm63.4 92h-3.4v-19.3c-.1-15.8-12.9-28.6-28.8-28.7h-2.4c12.7-4.1 21.3-15.9 21.2-29.3v-20.1c2.8-.5 4.8-3 4.7-5.8 0-11.6-9.3-21-20.9-21-1.5 0-3.1-.2-4.5-.7-3.2-1.1-6.6-1.7-10-1.9-17.2 0-31.1 13.9-31.1 31v18.5c0 13.8 9.4 25.3 21.8 29.3h-2.4c-15.8.1-28.4 13-28.4 28.7v19.3h-6.6l-45.6-78.8 45.4-79.2h91.1l45.3 79.2z" fill="#1ae5be"/></svg>