<?xml version="1.0"?>
<svg xmlns="http://www.w3.org/2000/svg" id="Layer_1" data-name="Layer 1" viewBox="0 0 512 512" width="512" height="512"><title>Mobile Hand</title><path d="M253,64.705A15.35,15.35,0,0,1,268.4,49h-20a15.35,15.35,0,0,0-15.4,15.7V81h20Z" style="fill:#d4e1f4"/><polygon points="253 93 233 93 233 208.454 253 192.618 253 93" style="fill:#d4e1f4"/><path d="M281.566,269.388l39.165-39.158a38.752,38.752,0,0,0,0-54.8l-7.72-7.72a6,6,0,0,0-7.967-.462l-6.973,5.522,2.66,2.66a38.752,38.752,0,0,1,0,54.8l-39.165,39.158a20.542,20.542,0,0,0-5.981,13.184A37.888,37.888,0,0,0,259.151,298h20a37.888,37.888,0,0,1-3.566-15.428A20.542,20.542,0,0,1,281.566,269.388Z" style="fill:#d4e1f4"/><path d="M282.314,310h-20a72.087,72.087,0,0,1,.374,11.69A86.3,86.3,0,0,1,256.562,350h20a86.3,86.3,0,0,0,6.126-28.31A72.087,72.087,0,0,0,282.314,310Z" style="fill:#d4e1f4"/><path d="M351.692,351.486a6,6,0,0,0-8.359,1.46l-45.669,65a44.616,44.616,0,0,1-59.684,12.38c-10.73-6.567-26.1-4.744-35,4.153L172.528,464.93a6,6,0,1,0,8.485,8.484l30.453-30.453c4.889-4.889,14.352-6.012,20.25-2.4a56.638,56.638,0,0,0,75.766-15.716l45.67-65A6,6,0,0,0,351.692,351.486Z" style="fill:#0635c9"/><path d="M230.767,160.618a6,6,0,0,0-8.481-8.49L138.64,235.67a65.5,65.5,0,0,0-17.61,61.58l.14.6a26.962,26.962,0,0,1-7.182,25.366c-16.985,16.961-44.6,44.574-44.6,44.574l8.486,8.486s27.611-27.611,44.593-44.57a38.883,38.883,0,0,0,10.39-36.578l-.14-.6a53.573,53.573,0,0,1,14.4-50.368Z" style="fill:#0635c9"/><path d="M396,298H250v12H396v24.519c0,8.754-7.582,15.481-16.336,15.481H248v12H379.664C395.036,362,408,349.89,408,334.519V297H396Z" style="fill:#1ae5be"/><path d="M379.664,37H248.4A27.361,27.361,0,0,0,221,64.705V224h12V93h88.569a6,6,0,0,0,0-12H233v-16.3A15.35,15.35,0,0,1,248.4,49H379.664C388.418,49,396,55.95,396,64.705V81H377.233a6,6,0,0,0,0,12H396v5h12V64.705C408,49.334,395.036,37,379.664,37Z" style="fill:#1ae5be"/><path d="M353.76,93a6,6,0,0,0,0-12h-9.078a6,6,0,0,0,0,12Z" style="fill:#1ae5be"/><path d="M329.757,330.144a15.723,15.723,0,1,0-15.723,15.722A15.741,15.741,0,0,0,329.757,330.144Zm-19.446,0a3.723,3.723,0,1,1,3.723,3.722A3.728,3.728,0,0,1,310.311,330.144Z" style="fill:#1ae5be"/><path d="M300.731,230.23a38.752,38.752,0,0,0,0-54.8l-7.72-7.72a6,6,0,0,0-7.967-.462L180.165,250.289a6,6,0,0,0,7.449,9.408L288.3,179.97l3.942,3.941a26.754,26.754,0,0,1,0,37.834l-39.164,39.164A32.54,32.54,0,0,0,243.6,282.06c-.007.115-.01.317-.01.432a49.78,49.78,0,0,0,4.754,20.76c1.907,4.168,2.7,10.212,2.361,17.963A76.266,76.266,0,0,1,228,371.834,61.868,61.868,0,0,1,183.9,390h-.51a6,6,0,0,0,0,12h.51a73.78,73.78,0,0,0,52.585-21.682,88.345,88.345,0,0,0,26.208-58.628c.424-9.668-.732-17.542-3.436-23.454a38,38,0,0,1-3.667-15.664,20.542,20.542,0,0,1,5.981-13.184Z" style="fill:#0635c9"/><path d="M429.551,245.081a28.929,28.929,0,0,0-1.879-48.226,28.918,28.918,0,0,0-1.285-52.5,28.929,28.929,0,0,0-25.226-51.977l-42.272,17.784A28.928,28.928,0,0,0,343.44,148.05h0a28.878,28.878,0,0,0,18.545,16.53,28.964,28.964,0,0,0-5.456,30.876h0a28.71,28.71,0,0,0,14.229,14.9,28.926,28.926,0,0,0,9.85,46.918c.354.145.71.276,1.067.406a28.928,28.928,0,0,0,37.163,42.637l10.326-4.557.091-.041c.155-.072.316-.155.469-.241a28.916,28.916,0,0,0-.175-50.4ZM354.5,143.4h0a16.928,16.928,0,0,1,9.04-22.17l42.272-17.785a16.93,16.93,0,1,1,13.13,31.211l-42.272,17.785A16.95,16.95,0,0,1,354.5,143.4Zm22.131,25.238,31.7-13.338a16.93,16.93,0,1,1,13.13,31.211l-31.7,13.338a16.932,16.932,0,0,1-22.171-9.041h0A16.95,16.95,0,0,1,376.632,168.634Zm-.7,68.417a16.949,16.949,0,0,1,9.04-22.171l21.135-8.892A16.93,16.93,0,1,1,419.235,237.2L398.1,246.091a16.931,16.931,0,0,1-22.17-9.04Zm48.1,47.856-10.3,4.546a5.768,5.768,0,0,0-.538.272,16.931,16.931,0,0,1-16.954-29.31l10.3-4.545a6.014,6.014,0,0,0,.538-.271,16.93,16.93,0,0,1,16.954,29.308Z" style="fill:#0635c9"/></svg>
