<svg id="Layer_1" height="512" viewBox="0 0 512 512" width="512" xmlns="http://www.w3.org/2000/svg" data-name="Layer 1"><path d="m216 318.031a117.989 117.989 0 0 1 0-234.062 117.988 117.988 0 1 0 0 234.062z" fill="#d4e1f4"/><path d="m451.415 400.3-99.729-99.728a6 6 0 0 0 -8.485 0l-7.761 7.76-18.982-18.981-8.485 8.485 18.982 18.982-10.134 10.134-18.982-18.982-8.485 8.485 18.981 18.982-7.76 7.761a6 6 0 0 0 0 8.485l99.725 99.732a36.142 36.142 0 1 0 51.115-51.115zm-103.972-87 20.685 20.684-34.141 34.141-20.687-20.682zm95.486 129.626a24.167 24.167 0 0 1 -34.14 0l-66.316-66.316 34.14-34.14 66.316 66.316a24.167 24.167 0 0 1 0 34.143z" fill="#1ae5be"/><g fill="#0635c9"><path d="m201 351.924a150.527 150.527 0 0 0 106.771-44.155c58.874-58.874 58.874-154.669 0-213.543s-154.669-58.874-213.543 0-58.874 154.669 0 213.543a150.529 150.529 0 0 0 106.772 44.155zm-98.289-249.213a139.157 139.157 0 0 1 196.573 0c54.195 54.2 54.195 142.377 0 196.573s-142.377 54.195-196.573 0-54.195-142.377 0-196.573z"/><path d="m125.436 245.063a90.662 90.662 0 0 1 -6.6-67.771 6 6 0 1 0 -11.5-3.434 102.761 102.761 0 0 0 7.485 76.811 6 6 0 0 0 10.611-5.606z"/><path d="m119.764 158.635a6 6 0 0 0 8.241-2.022c1.4-2.3 2.915-4.571 4.515-6.737a6 6 0 1 0 -9.653-7.128c-1.816 2.459-3.54 5.031-5.124 7.646a6 6 0 0 0 2.021 8.241z"/><path d="m288.823 113.322a122.27 122.27 0 0 0 -57.385-32.57 6 6 0 0 0 -7.438 5.828v.048a6.012 6.012 0 0 0 4.544 5.812 113.7 113.7 0 0 1 51.794 29.368c43.665 43.665 43.59 114.714-.075 158.38a112.166 112.166 0 0 1 -158.418 0c-43.665-43.666-43.533-114.715.132-158.38a109.907 109.907 0 0 1 66.623-32.043 6.015 6.015 0 0 0 5.4-5.965 6.006 6.006 0 0 0 -6.662-5.965 122.08 122.08 0 0 0 -73.865 35.483c-48.344 48.345-48.419 127.007-.075 175.351a124.155 124.155 0 0 0 175.369 0c48.344-48.34 48.4-127.002.056-175.347z"/></g></svg>